<svg xmlns="http://www.w3.org/2000/svg" width="158" height="123" viewBox="0 0 158 123"><g transform="translate(-0.5 -0.9)"><g transform="translate(0.5 0.9)"><path d="M19.554,92.16a48.966,48.966,0,0,1-18.1,12.094L.5,124a24.031,24.031,0,0,0,9.831-6.09c0,2.523-1.131,16.966-1.131,16.966l15.4-3.654s.87-17.227.87-21.142a21.679,21.679,0,0,1,8.352-5.133L34.867,85.2C34.78,85.286,26.688,84.242,19.554,92.16Z" transform="translate(-0.5 -11.879)" fill="#fff"/><path d="M161.276,57.321a50.21,50.21,0,0,1-18.532,12.355L141.7,89.861A25.632,25.632,0,0,0,151.792,83.6c0,2.523-1.218,17.314-1.218,17.314l15.748-3.741s.87-17.575.87-21.664a21.893,21.893,0,0,1,8.526-5.22L176.85,50.1C176.937,50.274,168.671,49.23,161.276,57.321Z" transform="translate(-18.85 -7.308)" fill="#fff"/><path d="M119.784,51.362c7.656-1.653,21.751-5.22,21.751-5.22a77.276,77.276,0,0,0,6.96-22.621c3.132-3.132,11.137-4.7,13.225-3.393l.957-16.009c-3.915-1.218-8,.609-12.529,3.567L151.367.9,133.618,5.337,132.4,12.646c-2.61,2.523-8.352,4.176-12.964,3.567L117,31.438a25.522,25.522,0,0,0,13.312-3.393C128.4,36.833,121.524,49.187,119.784,51.362Z" transform="translate(-15.64 -0.9)" fill="#fff"/><path d="M12.942,56.421,12.42,65.3c6.525-3.045,11.4-5.307,14.008-6.438l.261-6.7c2.262-1.566,4.089-2.088,5.916-1.653-1.827,8.7-11.137,22.447-12.964,24.622C27.3,73.3,39.478,70.342,39.478,70.342a60.394,60.394,0,0,0,8.787-23.23c3.045.348,4.872-.261,5.568-1.479l.783-15.748a7.777,7.777,0,0,1-5.133,1.044l.261-5.829-16.27,3.828-.348,5.655a9.513,9.513,0,0,0-5.481,1.305l.261-5.655-13.66,3.48-.435,6.351c-1.305.609-3.48.609-5.742.348L7.2,56.856C9.2,57.465,11.028,57.64,12.942,56.421Z" transform="translate(-1.371 -4.052)" fill="#fff"/><path d="M78.543,38.648c3.306-2.7,6.525-3.306,9.135-2.436,0,0-.609,9.222-11.4,25.492,6.7-.957,20.62-4.785,20.62-4.785a112.659,112.659,0,0,0,12.268-39.326c-2.958-1.131-7.308-1.827-13.834,1.74l.435-5.133c-9.744,2-11.659,2.958-19.489,4.7l-.261,6c-4.611,3.741-10.615,3.045-10.615,3.045L64.1,51.96c6.09-2,6.612-2.436,13.66-4.785Z" transform="translate(-8.765 -2.628)" fill="#fff"/><path d="M134.437,64.767a24.2,24.2,0,0,0-19.75,3.045c-8.7,5.655-16.618,4.872-16.618,4.872L90.5,102.7l15.052-3.393,1.566-4.263,3.306-.609a99.113,99.113,0,0,1-9.135,18.619c7.656-1.566,20.533-4.959,20.533-4.959s3.654-7.4,7.569-21.229A163.05,163.05,0,0,0,134.437,64.767Zm-21.664,20.62L109.38,86l1.653-5.046,3.654-.783Z" transform="translate(-12.196 -9.102)" fill="#fff"/><path d="M72.112,81.8a1.237,1.237,0,0,1-.522.174V77.193s-3.654-.609-8.961,2.7a14.966,14.966,0,0,1-9.57,2.262V88.33c-5.829,2.436-9.831.87-9.831.87l-.87,16.009c3.828.174,7.4-1.218,10.614-2.7v1.827c-3.045,2-6.96,2.7-10.7,2.7l-.87,15.922c4.089-.261,8.091-1.131,11.572-3.654l-.087,5.394L71.5,120.521v-4.959a19.274,19.274,0,0,1,9.309-1.914l.87-16.009c-3.48,0-7.4.435-10.179,2.262V98.074c3.915-2.262,7.134-2.262,10.266-2.349l.87-16.009C82.727,79.8,78.9,78.933,72.112,81.8Z" transform="translate(-5.815 -10.833)" fill="#fff"/></g><g transform="translate(90.114 116.244)"><path d="M106.545,136.11c-1.131-.261-1.392-.435-1.392-.87h0q0-.522.783-.522a3.52,3.52,0,0,1,1.653.609l.7-1.044a3.482,3.482,0,0,0-2.349-.783,1.952,1.952,0,0,0-2.175,1.914h0c0,1.218.783,1.653,2.088,1.914,1.044.261,1.305.435,1.305.783h0c0,.348-.348.609-.957.609a2.854,2.854,0,0,1-1.914-.783l-.783.957a4.048,4.048,0,0,0,2.7,1.044c1.392,0,2.349-.7,2.349-2h0C108.546,136.893,107.85,136.458,106.545,136.11Z" transform="translate(-103.5 -133.5)" fill="#fff"/><path d="M113,133.5l-2.7,6.351h1.392l.609-1.392H115l.609,1.392h1.479l-2.7-6.351Zm-.174,3.741.87-2.088.87,2.088Z" transform="translate(-104.384 -133.5)" fill="#fff"/><path d="M123.376,137.154c0,1.044-.522,1.479-1.392,1.479s-1.392-.522-1.392-1.566V133.5H119.2v3.654a2.521,2.521,0,0,0,2.784,2.784,2.548,2.548,0,0,0,2.784-2.871V133.5h-1.392Z" transform="translate(-105.54 -133.5)" fill="#fff"/><path d="M131.663,137.428l-2.958-3.828H127.4v6.264h1.392v-4l3.132,4h1.131V133.6h-1.392Z" transform="translate(-106.606 -133.513)" fill="#fff"/><path d="M138,133.5l-2.7,6.351h1.392l.609-1.392H140l.609,1.392h1.479l-2.7-6.351Zm-.261,3.741.87-2.088.87,2.088Z" transform="translate(-107.633 -133.5)" fill="#fff"/><rect width="1.392" height="6.351" transform="translate(38.456 0.087)" fill="#fff"/><path d="M156.968,133.6h-1.653l-2.523,2.7v-2.7H151.4v6.264h1.392V137.95l.7-.783,2,2.7h1.653l-2.7-3.654Z" transform="translate(-109.725 -133.513)" fill="#fff"/><rect width="1.392" height="6.351" transform="translate(48.461 0.087)" fill="#fff"/><path d="M162.3,134.818h2v5.046h1.392v-5.046h1.914V133.6H162.3Z" transform="translate(-111.142 -133.513)" fill="#fff"/><path d="M171.9,133.5l-2.7,6.351h1.392l.609-1.392h2.7l.609,1.392h1.479l-2.7-6.351Zm-.174,3.741.87-2.088.87,2.088Z" transform="translate(-112.038 -133.5)" fill="#fff"/><rect width="1.392" height="6.351" transform="translate(65.079 0.087)" fill="#fff"/></g></g></svg>