<svg xmlns="http://www.w3.org/2000/svg" width="24" height="24" viewBox="0 0 24 24"><g transform="translate(-364 -316)"><path d="M0,0H24V24H0Z" transform="translate(364 316)" fill="none" opacity="0"/><path d="M11.219,1.25h.059c.562,0,1.027,0,1.411.033A2.815,2.815,0,0,1,15.1,2.858a9.257,9.257,0,0,1,.523,1.176c.033.086.065.168.1.245l.137.343c.067.169.1.253.171.3a.635.635,0,0,0,.345.051,5.5,5.5,0,0,1,2.073.3A3.929,3.929,0,0,1,20.464,7.19a4.093,4.093,0,0,1,.344,1.281c.061.469.1,1.048.142,1.772l.149,2.414a35.667,35.667,0,0,1,.117,4.357,4.417,4.417,0,0,1-1.05,2.84A4.318,4.318,0,0,1,17.424,21.1a34.267,34.267,0,0,1-4.3.153H9.372a34.267,34.267,0,0,1-4.3-.153A4.318,4.318,0,0,1,2.33,19.854a4.417,4.417,0,0,1-1.05-2.84A35.664,35.664,0,0,1,1.4,12.657l.149-2.414c.045-.724.08-1.3.142-1.772A4.1,4.1,0,0,1,2.032,7.19,3.928,3.928,0,0,1,4.047,5.273a5.5,5.5,0,0,1,2.074-.3.636.636,0,0,0,.345-.051c.07-.048.1-.132.171-.3l.137-.343c.031-.077.063-.159.1-.245h0a9.25,9.25,0,0,1,.524-1.176,3.045,3.045,0,0,1,1.3-1.295,3.02,3.02,0,0,1,1.117-.281c.384-.033.849-.033,1.411-.033Zm-.9,4.419a.928.928,0,0,1,.926-.93.93.93,0,1,1,0,1.86A.928.928,0,0,1,10.32,5.669Zm.93,3.721a3.721,3.721,0,1,0,3.721,3.721A3.721,3.721,0,0,0,11.25,9.39Z" transform="translate(364.752 316.75)" fill="#696969" fill-rule="evenodd"/></g></svg>